<svg width="24" height="24" xmlns="http://www.w3.org/2000/svg">

     <path fill="#ffffff" id="svg_1" d="m14.033482,19l-4,0c-0.276,0 -0.5,0.224 -0.5,0.5s0.224,0.5 0.5,0.5l4,0c0.276,0 0.5,-0.224 0.5,-0.5s-0.224,-0.5 -0.5,-0.5zm0,2l-4,0c-0.276,0 -0.5,0.224 -0.5,0.5s0.224,0.5 0.5,0.5l4,0c0.276,0 0.5,-0.224 0.5,-0.5s-0.224,-0.5 -0.5,-0.5zm0.25,2l-4.5,0l1.188,0.782c0.154,0.138 0.38,0.218 0.615,0.218l0.895,0c0.234,0 0.461,-0.08 0.615,-0.218l1.187,-0.782zm3.75,-13.799c0,3.569 -3.214,5.983 -3.214,8.799l-1.989,0c-0.003,-1.858 0.87,-3.389 1.721,-4.867c0.761,-1.325 1.482,-2.577 1.482,-3.932c0,-2.592 -2.075,-3.772 -4.003,-3.772c-1.925,0 -3.997,1.18 -3.997,3.772c0,1.355 0.721,2.607 1.482,3.932c0.851,1.478 1.725,3.009 1.72,4.867l-1.988,0c0,-2.816 -3.214,-5.23 -3.214,-8.799c0,-3.723 2.998,-5.772 5.997,-5.772c3.001,0 6.003,2.051 6.003,5.772zm4,-0.691l0,1.372l-2.538,0c0.02,-0.223 0.038,-0.448 0.038,-0.681c0,-0.237 -0.017,-0.464 -0.035,-0.69l2.535,0l0,-0.001zm-10.648,-6.553l0,-1.957l1.371,0l0,1.964c-0.242,-0.022 -0.484,-0.035 -0.726,-0.035c-0.215,0 -0.43,0.01 -0.645,0.028zm-3.743,1.294l-1.04,-1.94l1.208,-0.648l1.037,1.933c-0.418,0.181 -0.822,0.401 -1.205,0.655zm10.586,1.735l1.942,-1.394l0.799,1.115l-2.054,1.473c-0.191,-0.43 -0.423,-0.827 -0.687,-1.194zm-3.01,-2.389l1.038,-1.934l1.208,0.648l-1.041,1.941c-0.382,-0.254 -0.786,-0.473 -1.205,-0.655zm-10.068,3.583l-2.054,-1.472l0.799,-1.115l1.942,1.393c-0.264,0.366 -0.495,0.763 -0.687,1.194zm13.707,6.223l2.354,0.954l-0.514,1.271l-2.425,-0.982c0.21,-0.397 0.408,-0.812 0.585,-1.243zm-13.108,1.155l-2.356,1.06l-0.562,-1.251l2.34,-1.052c0.173,0.433 0.371,0.845 0.578,1.243zm-1.178,-3.676l-2.538,0l0,-1.372l2.535,0c-0.018,0.226 -0.035,0.454 -0.035,0.691c0,0.233 0.018,0.458 0.038,0.681z"/>

</svg>
